<?xml version="1.0" encoding="UTF-8"?>
<svg id="Ebene_1" xmlns="http://www.w3.org/2000/svg" version="1.1" viewBox="0 0 40 40">
  <!-- Generator: Adobe Illustrator 30.2.1, SVG Export Plug-In . SVG Version: 2.1.1 Build 1)  -->
  <defs>
    <style>
      .st0 {
        fill: #fffcf3;
      }
    </style>
  </defs>
  <path class="st0" d="M30.56,30.56h-4.44v-6.96c0-1.66-.03-3.8-2.32-3.8s-2.67,1.81-2.67,3.68v7.08h-4.44v-14.31h4.27v1.95h.06c.6-1.12,2.05-2.31,4.21-2.31,4.5,0,5.33,2.96,5.33,6.82v7.86h0ZM11.67,14.29c-.34,0-.67-.07-.99-.2-.31-.13-.6-.32-.84-.56-.24-.24-.43-.52-.56-.84-.13-.31-.2-.65-.2-.99,0-.51.15-1.01.44-1.43s.69-.75,1.16-.95c.47-.19.99-.25,1.49-.15.5.1.96.35,1.32.71.36.36.61.82.71,1.32.1.5.05,1.02-.15,1.49-.2.47-.53.87-.95,1.16-.42.28-.92.43-1.43.43ZM13.9,30.56h-4.45v-14.31h4.46v14.31h0ZM32.78,5c10.85,0-27.78,0-27.78,0v30h30V5h-2.22Z"/>
</svg>