<?xml version="1.0" encoding="UTF-8"?>
<svg id="Camada_1" xmlns="http://www.w3.org/2000/svg" version="1.1" viewBox="0 0 800 800">
  <!-- Generator: Adobe Illustrator 30.2.1, SVG Export Plug-In . SVG Version: 2.1.1 Build 1)  -->
  <path d="M650,50H150c-55,0-100,45-100,100v500c0,55,45,100,100,100h500c55,0,100-45,100-100V150c0-55-45-100-100-100ZM650,600l-122.5,50-202.5-200-127.5,100-50-25v-250l50-25,127.5,100,200-200,125,50v400Z"/>
  <polygon points="197.5 477.5 275 400 200 322.5 197.5 477.5"/>
  <polygon points="525 502.5 525 295 392.5 400 525 502.5"/>
</svg>