<?xml version="1.0" encoding="UTF-8"?>
<svg id="Ebene_1" xmlns="http://www.w3.org/2000/svg" version="1.1" viewBox="0 0 40 40">
  <!-- Generator: Adobe Illustrator 30.2.1, SVG Export Plug-In . SVG Version: 2.1.1 Build 1)  -->
  <defs>
    <style>
      .st0 {
        fill: #fffcf3;
      }
    </style>
  </defs>
  <path class="st0" d="M34.7,5s-.57,0-1.92,0H5v30h11.28s0-.03,0-.04c0-.36-.02-1.54-.02-2.79-3.77.69-4.74-.92-5.04-1.76-.17-.43-.9-1.76-1.54-2.12-.53-.28-1.28-.98-.02-.99,1.18-.02,2.02,1.09,2.31,1.54,1.35,2.27,3.51,1.63,4.37,1.24.13-.98.52-1.63.96-2.01-3.34-.38-6.83-1.67-6.83-7.41,0-1.63.58-2.98,1.54-4.03-.15-.38-.67-1.91.15-3.97,0,0,1.26-.39,4.12,1.54,1.22-.34,2.48-.51,3.75-.51,1.28,0,2.55.17,3.75.51,2.87-1.95,4.12-1.54,4.12-1.54.83,2.06.3,3.6.15,3.98.96,1.05,1.54,2.38,1.54,4.03,0,5.76-3.51,7.03-6.84,7.41.54.47,1.01,1.37,1.01,2.77,0,2.01-.02,3.62-.02,4.12,0,.01,0,.03,0,.04h11.25V5h-.3Z"/>
</svg>